<svg width="159" height="204" viewBox="0 0 159 204" fill="none" xmlns="http://www.w3.org/2000/svg">
<path d="M3.70693 158.997L22.434 132.252C42.87 103.066 83.0962 95.9734 112.282 116.409C115.977 118.997 116.875 124.09 114.288 127.786L67.2459 194.968C61.0688 203.79 48.9096 205.934 40.0877 199.757L6.78192 176.436C1.1171 172.47 -0.25962 164.662 3.70693 158.997Z" fill="white" stroke="black"/>
<mask id="path-2-inside-1_0_1" fill="white">
<path d="M81 114.157L127.123 48.2873C131.874 41.5012 141.227 39.852 148.014 44.6036L152.521 47.7598C159.307 52.5115 160.956 61.8647 156.205 68.6508L110.082 134.521L81 114.157Z"/>
</mask>
<path d="M81 114.157L127.123 48.2873C131.874 41.5012 141.227 39.852 148.014 44.6036L152.521 47.7598C159.307 52.5115 160.956 61.8647 156.205 68.6508L110.082 134.521L81 114.157Z" fill="white"/>
<path d="M80.1808 113.584L126.303 47.7137C131.372 40.4752 141.349 38.7161 148.587 43.7845L147.44 45.4228C141.106 40.9879 132.377 42.5272 127.942 48.8609L81.8192 114.731L80.1808 113.584ZM153.095 46.9407C160.333 52.0091 162.092 61.9858 157.024 69.2243L110.901 135.094L109.263 133.947L155.386 68.0772C159.82 61.7435 158.281 53.0139 151.947 48.579L153.095 46.9407ZM110.082 134.521L81 114.157L110.082 134.521ZM126.303 47.7137C131.372 40.4752 141.349 38.7161 148.587 43.7845L153.095 46.9407C160.333 52.0091 162.092 61.9858 157.024 69.2243L155.386 68.0772C159.82 61.7435 158.281 53.0139 151.947 48.579L147.44 45.4228C141.106 40.9879 132.377 42.5272 127.942 48.8609L126.303 47.7137Z" fill="black" mask="url(#path-2-inside-1_0_1)"/>
<mask id="path-4-inside-2_0_1" fill="white">
<path d="M1 46C1 37.7157 7.71573 31 16 31H29V120H1V46Z"/>
</mask>
<path d="M1 46C1 37.7157 7.71573 31 16 31H29V120H1V46Z" fill="white"/>
<path d="M0 46C0 37.1634 7.16344 30 16 30H30L28 32H16C8.26801 32 2 38.268 2 46H0ZM29 120H1H29ZM0 120V46C0 37.1634 7.16344 30 16 30V32C8.26801 32 2 38.268 2 46V120H0ZM30 30V120H28V32L30 30Z" fill="black" mask="url(#path-4-inside-2_0_1)"/>
<mask id="path-6-inside-3_0_1" fill="white">
<path d="M10.6109 32.6197L127.164 1.38952C135.166 -0.754612 143.391 3.99413 145.535 11.9961L146.829 16.8257C148.973 24.8277 144.224 33.0528 136.222 35.1969L19.6696 66.4271L10.6109 32.6197Z"/>
</mask>
<path d="M10.6109 32.6197L127.164 1.38952C135.166 -0.754612 143.391 3.99413 145.535 11.9961L146.829 16.8257C148.973 24.8277 144.224 33.0528 136.222 35.1969L19.6696 66.4271L10.6109 32.6197Z" fill="white"/>
<path d="M10.3521 31.6538L126.905 0.423589C135.44 -1.86348 144.214 3.20184 146.501 11.7373L144.569 12.2549C142.568 4.78641 134.891 0.354256 127.423 2.35544L10.8697 33.5857L10.3521 31.6538ZM147.795 16.5669C150.082 25.1024 145.017 33.8758 136.481 36.1628L19.9284 67.3931L19.4108 65.4612L135.964 34.231C143.432 32.2298 147.864 24.5531 145.863 17.0846L147.795 16.5669ZM19.6696 66.4271L10.6109 32.6197L19.6696 66.4271ZM126.905 0.423589C135.44 -1.86348 144.214 3.20184 146.501 11.7373L147.795 16.5669C150.082 25.1024 145.017 33.8758 136.481 36.1628L135.964 34.231C143.432 32.2298 147.864 24.5531 145.863 17.0846L144.569 12.2549C142.568 4.78641 134.891 0.354256 127.423 2.35544L126.905 0.423589Z" fill="black" mask="url(#path-6-inside-3_0_1)"/>
<mask id="path-8-inside-4_0_1" fill="white">
<path d="M15 85H43V156H15V85Z"/>
</mask>
<path d="M15 85H43V156H15V85Z" fill="white"/>
<path d="M16 156V85H14V156H16Z" fill="black" mask="url(#path-8-inside-4_0_1)"/>
<mask id="path-10-inside-5_0_1" fill="white">
<path d="M1 96H29V167H1V96Z"/>
</mask>
<path d="M1 96H29V167H1V96Z" fill="white"/>
<path d="M2 167V96H0V167H2Z" fill="black" mask="url(#path-10-inside-5_0_1)"/>
<mask id="path-12-inside-6_0_1" fill="white">
<path d="M15 54C15 45.7157 21.7157 39 30 39H50V114H15V54Z"/>
</mask>
<path d="M15 54C15 45.7157 21.7157 39 30 39H50V114H15V54Z" fill="white"/>
<path d="M14 54C14 45.1634 21.1634 38 30 38H51L49 40H30C22.268 40 16 46.268 16 54H14ZM50 114H15H50ZM14 114V54C14 45.1634 21.1634 38 30 38V40C22.268 40 16 46.268 16 54V114H14ZM51 38V114H49V40L51 38Z" fill="black" mask="url(#path-12-inside-6_0_1)"/>
<mask id="path-14-inside-7_0_1" fill="white">
<path d="M29 39.2422L119.913 14.8823C127.915 12.7382 136.14 17.4869 138.284 25.4889L139.578 30.3185C141.722 38.3205 136.973 46.5456 128.971 48.6897L38.0587 73.0496L29 39.2422Z"/>
</mask>
<path d="M29 39.2422L119.913 14.8823C127.915 12.7382 136.14 17.4869 138.284 25.4889L139.578 30.3185C141.722 38.3205 136.973 46.5456 128.971 48.6897L38.0587 73.0496L29 39.2422Z" fill="white"/>
<path d="M28.7412 38.2763L119.654 13.9164C128.189 11.6293 136.963 16.6946 139.25 25.2301L137.318 25.7477C135.317 18.2792 127.64 13.847 120.171 15.8482L29.2588 40.2081L28.7412 38.2763ZM140.544 30.0597C142.831 38.5952 137.765 47.3685 129.23 49.6556L38.3175 74.0155L37.7998 72.0837L128.712 47.7238C136.181 45.7226 140.613 38.0459 138.612 30.5773L140.544 30.0597ZM38.0587 73.0496L29 39.2422L38.0587 73.0496ZM119.654 13.9164C128.189 11.6293 136.963 16.6946 139.25 25.2301L140.544 30.0597C142.831 38.5952 137.765 47.3685 129.23 49.6556L128.712 47.7238C136.181 45.7226 140.613 38.0459 138.612 30.5773L137.318 25.7477C135.317 18.2792 127.64 13.847 120.171 15.8482L119.654 13.9164Z" fill="black" mask="url(#path-14-inside-7_0_1)"/>
</svg>
