<svg width="235" height="170" viewBox="0 0 235 170" fill="none" xmlns="http://www.w3.org/2000/svg">
<path d="M15 0.5H32C86.9523 0.5 131.5 45.0477 131.5 100V169.5H20C9.23044 169.5 0.5 160.77 0.5 150V15C0.5 6.99188 6.99187 0.5 15 0.5Z" fill="white" stroke="black"/>
<mask id="path-2-inside-1_0_1" fill="white">
<path d="M111 30L211 30C219.284 30 226 36.7157 226 45V50C226 58.2843 219.284 65 211 65H111V30Z"/>
</mask>
<path d="M111 30L211 30C219.284 30 226 36.7157 226 45V50C226 58.2843 219.284 65 211 65H111V30Z" fill="white"/>
<path d="M111 29L211 29C219.837 29 227 36.1634 227 45H225C225 37.268 218.732 31 211 31L111 31V29ZM227 50C227 58.8366 219.837 66 211 66H111V64H211C218.732 64 225 57.732 225 50H227ZM111 65V30V65ZM211 29C219.837 29 227 36.1634 227 45V50C227 58.8366 219.837 66 211 66V64C218.732 64 225 57.732 225 50V45C225 37.268 218.732 31 211 31V29Z" fill="black" mask="url(#path-2-inside-1_0_1)"/>
<mask id="path-4-inside-2_0_1" fill="white">
<path d="M111 65H220C228.284 65 235 71.7157 235 80V85C235 93.2843 228.284 100 220 100H111V65Z"/>
</mask>
<path d="M111 65H220C228.284 65 235 71.7157 235 80V85C235 93.2843 228.284 100 220 100H111V65Z" fill="white"/>
<path d="M111 64H220C228.837 64 236 71.1634 236 80H234C234 72.268 227.732 66 220 66H111V64ZM236 85C236 93.8366 228.837 101 220 101H111V99H220C227.732 99 234 92.732 234 85H236ZM111 100V65V100ZM220 64C228.837 64 236 71.1634 236 80V85C236 93.8366 228.837 101 220 101V99C227.732 99 234 92.732 234 85V80C234 72.268 227.732 66 220 66V64Z" fill="black" mask="url(#path-4-inside-2_0_1)"/>
<mask id="path-6-inside-3_0_1" fill="white">
<path d="M111 100H211C219.284 100 226 106.716 226 115V120C226 128.284 219.284 135 211 135H111V100Z"/>
</mask>
<path d="M111 100H211C219.284 100 226 106.716 226 115V120C226 128.284 219.284 135 211 135H111V100Z" fill="white"/>
<path d="M111 99H211C219.837 99 227 106.163 227 115H225C225 107.268 218.732 101 211 101H111V99ZM227 120C227 128.837 219.837 136 211 136H111V134H211C218.732 134 225 127.732 225 120H227ZM111 135V100V135ZM211 99C219.837 99 227 106.163 227 115V120C227 128.837 219.837 136 211 136V134C218.732 134 225 127.732 225 120V115C225 107.268 218.732 101 211 101V99Z" fill="black" mask="url(#path-6-inside-3_0_1)"/>
<mask id="path-8-inside-4_0_1" fill="white">
<path d="M99 135H183C191.284 135 198 141.716 198 150V155C198 163.284 191.284 170 183 170H99V135Z"/>
</mask>
<path d="M99 135H183C191.284 135 198 141.716 198 150V155C198 163.284 191.284 170 183 170H99V135Z" fill="white"/>
<path d="M99 134H183C191.837 134 199 141.163 199 150H197C197 142.268 190.732 136 183 136H99V134ZM199 155C199 163.837 191.837 171 183 171H99V169H183C190.732 169 197 162.732 197 155H199ZM99 170V135V170ZM183 134C191.837 134 199 141.163 199 150V155C199 163.837 191.837 171 183 171V169C190.732 169 197 162.732 197 155V150C197 142.268 190.732 136 183 136V134Z" fill="black" mask="url(#path-8-inside-4_0_1)"/>
<mask id="path-10-inside-5_0_1" fill="white">
<path d="M42 0L107.788 0C116.072 0 122.788 6.71573 122.788 15V20C122.788 28.2843 116.072 35 107.788 35L42 35V0Z"/>
</mask>
<path d="M42 0L107.788 0C116.072 0 122.788 6.71573 122.788 15V20C122.788 28.2843 116.072 35 107.788 35L42 35V0Z" fill="white"/>
<path d="M42 -1L107.788 -1C116.624 -1 123.788 6.16344 123.788 15L121.788 15C121.788 7.26801 115.52 1 107.788 1L42 1V-1ZM123.788 20C123.788 28.8366 116.624 36 107.788 36L42 36V34L107.788 34C115.52 34 121.788 27.732 121.788 20H123.788ZM42 35V0V35ZM107.788 -1C116.624 -1 123.788 6.16344 123.788 15V20C123.788 28.8366 116.624 36 107.788 36V34C115.52 34 121.788 27.732 121.788 20V15C121.788 7.26801 115.52 1 107.788 1V-1Z" fill="black" mask="url(#path-10-inside-5_0_1)"/>
</svg>
