<svg width="142" height="169" viewBox="0 0 142 169" fill="none" xmlns="http://www.w3.org/2000/svg">
<path d="M15 0.5H47.5C93.8919 0.5 131.5 38.1081 131.5 84.5C131.5 130.892 93.8919 168.5 47.5 168.5H20C9.23044 168.5 0.5 159.77 0.5 149V15C0.5 6.99187 6.99187 0.5 15 0.5Z" fill="white" stroke="black"/>
<path d="M60 23.5H127C135.008 23.5 141.5 29.9919 141.5 38V43C141.5 51.0081 135.008 57.5 127 57.5H60C54.7533 57.5 50.5 53.2467 50.5 48V33C50.5 27.7533 54.7533 23.5 60 23.5Z" fill="white" stroke="black"/>
<path d="M60 58.5H127C135.008 58.5 141.5 64.9919 141.5 73V78C141.5 86.0081 135.008 92.5 127 92.5H60C54.7533 92.5 50.5 88.2467 50.5 83V68C50.5 62.7533 54.7533 58.5 60 58.5Z" fill="white" stroke="black"/>
<path d="M60 93.5H127C135.008 93.5 141.5 99.9919 141.5 108V113C141.5 121.008 135.008 127.5 127 127.5H60C54.7533 127.5 50.5 123.247 50.5 118V103C50.5 97.7533 54.7533 93.5 60 93.5Z" fill="white" stroke="black"/>
<path d="M60 128.5H122C130.008 128.5 136.5 134.992 136.5 143V148C136.5 156.008 130.008 162.5 122 162.5H60C54.7533 162.5 50.5 158.247 50.5 153V138C50.5 132.753 54.7533 128.5 60 128.5Z" fill="white" stroke="black"/>
<mask id="path-6-inside-1_0_1" fill="white">
<path d="M50 0H95C103.284 0 110 6.71573 110 15V20C110 28.2843 103.284 35 95 35H50V0Z"/>
</mask>
<path d="M50 0H95C103.284 0 110 6.71573 110 15V20C110 28.2843 103.284 35 95 35H50V0Z" fill="white"/>
<path d="M50 -1H95C103.837 -1 111 6.16344 111 15H109C109 7.26801 102.732 1 95 1H50V-1ZM111 20C111 28.8366 103.837 36 95 36H50V34H95C102.732 34 109 27.732 109 20H111ZM50 35V0V35ZM95 -1C103.837 -1 111 6.16344 111 15V20C111 28.8366 103.837 36 95 36V34C102.732 34 109 27.732 109 20V15C109 7.26801 102.732 1 95 1V-1Z" fill="black" mask="url(#path-6-inside-1_0_1)"/>
</svg>
