<svg width="231" height="169" viewBox="0 0 231 169" fill="none" xmlns="http://www.w3.org/2000/svg">
<path d="M15 0.5H47.5C93.8919 0.5 131.5 38.1081 131.5 84.5C131.5 130.892 93.8919 168.5 47.5 168.5H20C9.23044 168.5 0.5 159.77 0.5 149V15C0.5 6.99187 6.99187 0.5 15 0.5Z" fill="white" stroke="black"/>
<mask id="path-2-inside-1_0_1" fill="white">
<path d="M110 29.7642L206.593 3.88227C214.595 1.73814 222.82 6.48688 224.964 14.4889L226.258 19.3185C228.402 27.3205 223.653 35.5455 215.651 37.6897L119.059 63.5716L110 29.7642Z"/>
</mask>
<path d="M110 29.7642L206.593 3.88227C214.595 1.73814 222.82 6.48688 224.964 14.4889L226.258 19.3185C228.402 27.3205 223.653 35.5455 215.651 37.6897L119.059 63.5716L110 29.7642Z" fill="white"/>
<path d="M109.741 28.7982L206.334 2.91635C214.869 0.629276 223.643 5.6946 225.93 14.2301L223.998 14.7477C221.997 7.27917 214.32 2.84701 206.851 4.8482L110.259 30.7301L109.741 28.7982ZM227.224 19.0597C229.511 27.5951 224.446 36.3685 215.91 38.6556L119.317 64.5375L118.8 62.6057L215.392 36.7237C222.861 34.7226 227.293 27.0458 225.292 19.5773L227.224 19.0597ZM119.059 63.5716L110 29.7642L119.059 63.5716ZM206.334 2.91635C214.869 0.629276 223.643 5.6946 225.93 14.2301L227.224 19.0597C229.511 27.5951 224.446 36.3685 215.91 38.6556L215.392 36.7237C222.861 34.7226 227.293 27.0458 225.292 19.5773L223.998 14.7477C221.997 7.27917 214.32 2.84701 206.851 4.8482L206.334 2.91635Z" fill="black" mask="url(#path-2-inside-1_0_1)"/>
<mask id="path-4-inside-2_0_1" fill="white">
<path d="M121.971 56L220.638 91.9121C228.423 94.7455 232.437 103.353 229.604 111.138L227.893 115.836C225.06 123.621 216.452 127.635 208.668 124.801L110 88.8892L121.971 56Z"/>
</mask>
<path d="M121.971 56L220.638 91.9121C228.423 94.7455 232.437 103.353 229.604 111.138L227.893 115.836C225.06 123.621 216.452 127.635 208.668 124.801L110 88.8892L121.971 56Z" fill="white"/>
<path d="M122.313 55.0603L220.98 90.9724C229.284 93.9947 233.565 103.176 230.543 111.48L228.664 110.796C231.308 103.53 227.562 95.4963 220.296 92.8518L121.629 56.9397L122.313 55.0603ZM228.833 116.178C225.811 124.482 216.629 128.763 208.326 125.741L109.658 89.8289L110.342 87.9495L209.01 123.862C216.275 126.506 224.309 122.76 226.954 115.494L228.833 116.178ZM110 88.8892L121.971 56L110 88.8892ZM220.98 90.9724C229.284 93.9947 233.565 103.176 230.543 111.48L228.833 116.178C225.811 124.482 216.629 128.763 208.326 125.741L209.01 123.862C216.275 126.506 224.309 122.76 226.954 115.494L228.664 110.796C231.308 103.53 227.562 95.4963 220.296 92.8518L220.98 90.9724Z" fill="black" mask="url(#path-4-inside-2_0_1)"/>
<path d="M60 93.5H127C135.008 93.5 141.5 99.9919 141.5 108V113C141.5 121.008 135.008 127.5 127 127.5H60C54.7533 127.5 50.5 123.247 50.5 118V103C50.5 97.7533 54.7533 93.5 60 93.5Z" fill="white" stroke="black"/>
<path d="M60 128.5H122C130.008 128.5 136.5 134.992 136.5 143V148C136.5 156.008 130.008 162.5 122 162.5H60C54.7533 162.5 50.5 158.247 50.5 153V138C50.5 132.753 54.7533 128.5 60 128.5Z" fill="white" stroke="black"/>
<mask id="path-8-inside-3_0_1" fill="white">
<path d="M65.7487 7L112.268 53.519C118.126 59.3769 118.126 68.8744 112.268 74.7322L108.732 78.2678C102.874 84.1256 93.3769 84.1256 87.519 78.2678L41 31.7487L65.7487 7Z"/>
</mask>
<path d="M65.7487 7L112.268 53.519C118.126 59.3769 118.126 68.8744 112.268 74.7322L108.732 78.2678C102.874 84.1256 93.3769 84.1256 87.519 78.2678L41 31.7487L65.7487 7Z" fill="white"/>
<path d="M66.4558 6.29289L112.975 52.8119C119.223 59.0603 119.223 69.1909 112.975 75.4393L111.561 74.0251C117.028 68.5578 117.028 59.6935 111.561 54.2261L65.0416 7.70711L66.4558 6.29289ZM109.439 78.9749C103.191 85.2233 93.0603 85.2233 86.8119 78.9749L40.2929 32.4558L41.7071 31.0416L88.2261 77.5607C93.6935 83.028 102.558 83.028 108.025 77.5607L109.439 78.9749ZM41 31.7487L65.7487 7L41 31.7487ZM112.975 52.8119C119.223 59.0603 119.223 69.1909 112.975 75.4393L109.439 78.9749C103.191 85.2233 93.0603 85.2233 86.8119 78.9749L88.2261 77.5607C93.6935 83.028 102.558 83.028 108.025 77.5607L111.561 74.0251C117.028 68.5578 117.028 59.6935 111.561 54.2261L112.975 52.8119Z" fill="black" mask="url(#path-8-inside-3_0_1)"/>
</svg>
