<svg width="222" height="264" viewBox="0 0 222 264" fill="none" xmlns="http://www.w3.org/2000/svg">
<path d="M43 134.5H110C137.338 134.5 159.5 156.662 159.5 184V214C159.5 241.338 137.338 263.5 110 263.5H43C32.2305 263.5 23.5 254.77 23.5 244V154C23.5 143.23 32.2304 134.5 43 134.5Z" fill="white" stroke="black"/>
<mask id="path-2-inside-1_0_1" fill="white">
<path d="M88 139.795L122.111 12.4889C124.256 4.48691 132.481 -0.26184 140.483 1.88229L145.312 3.17638C153.314 5.32051 158.063 13.5456 155.919 21.5476L121.807 148.853L88 139.795Z"/>
</mask>
<path d="M88 139.795L122.111 12.4889C124.256 4.48691 132.481 -0.26184 140.483 1.88229L145.312 3.17638C153.314 5.32051 158.063 13.5456 155.919 21.5476L121.807 148.853L88 139.795Z" fill="white"/>
<path d="M87.0341 139.536L121.146 12.2301C123.433 3.69461 132.206 -1.37071 140.741 0.916361L140.224 2.84821C132.755 0.847027 125.079 5.27918 123.077 12.7477L88.9659 140.053L87.0341 139.536ZM145.571 2.21046C154.107 4.49752 159.172 13.2709 156.885 21.8064L122.773 149.112L120.841 148.594L154.953 21.2887C156.954 13.8202 152.522 6.14349 145.053 4.14231L145.571 2.21046ZM121.807 148.853L88 139.795L121.807 148.853ZM121.146 12.2301C123.433 3.69461 132.206 -1.37071 140.741 0.916361L145.571 2.21046C154.107 4.49752 159.172 13.2709 156.885 21.8064L154.953 21.2887C156.954 13.8202 152.522 6.14349 145.053 4.14231L140.224 2.84821C132.755 0.847027 125.079 5.27918 123.077 12.7477L121.146 12.2301Z" fill="black" mask="url(#path-2-inside-1_0_1)"/>
<mask id="path-4-inside-2_0_1" fill="white">
<path d="M121 150.934L149.79 43.4889C151.934 35.4869 160.159 30.7382 168.161 32.8823L172.991 34.1764C180.993 36.3205 185.741 44.5456 183.597 52.5476L154.807 159.992L121 150.934Z"/>
</mask>
<path d="M121 150.934L149.79 43.4889C151.934 35.4869 160.159 30.7382 168.161 32.8823L172.991 34.1764C180.993 36.3205 185.741 44.5456 183.597 52.5476L154.807 159.992L121 150.934Z" fill="white"/>
<path d="M120.034 150.675L148.824 43.2301C151.111 34.6946 159.884 29.6293 168.42 31.9164L167.902 33.8482C160.434 31.847 152.757 36.2792 150.756 43.7477L121.966 151.192L120.034 150.675ZM173.249 33.2105C181.785 35.4975 186.85 44.2709 184.563 52.8064L155.773 160.251L153.841 159.733L182.631 52.2887C184.632 44.8202 180.2 37.1435 172.732 35.1423L173.249 33.2105ZM154.807 159.992L121 150.934L154.807 159.992ZM148.824 43.2301C151.111 34.6946 159.884 29.6293 168.42 31.9164L173.249 33.2105C181.785 35.4975 186.85 44.2709 184.563 52.8064L182.631 52.2887C184.632 44.8202 180.2 37.1435 172.732 35.1423L167.902 33.8482C160.434 31.847 152.757 36.2792 150.756 43.7477L148.824 43.2301Z" fill="black" mask="url(#path-4-inside-2_0_1)"/>
<mask id="path-6-inside-3_0_1" fill="white">
<path d="M56.2129 148.671L21.8823 20.5475C19.7382 12.5455 24.4869 4.32051 32.4889 2.17638L37.3185 0.882283C45.3205 -1.26184 53.5456 3.48689 55.6897 11.4889L90.0203 139.612L56.2129 148.671Z"/>
</mask>
<path d="M56.2129 148.671L21.8823 20.5475C19.7382 12.5455 24.4869 4.32051 32.4889 2.17638L37.3185 0.882283C45.3205 -1.26184 53.5456 3.48689 55.6897 11.4889L90.0203 139.612L56.2129 148.671Z" fill="white"/>
<path d="M55.247 148.93L20.9164 20.8064C18.6293 12.2709 23.6946 3.49752 32.2301 1.21045L32.7477 3.1423C25.2792 5.14349 20.847 12.8202 22.8482 20.2887L57.1788 148.412L55.247 148.93ZM37.0597 -0.0836424C45.5952 -2.37071 54.3685 2.69461 56.6556 11.2301L90.9862 139.354L89.0544 139.871L54.7238 11.7477C52.7226 4.27918 45.0459 -0.152976 37.5773 1.84821L37.0597 -0.0836424ZM90.0203 139.612L56.2129 148.671L90.0203 139.612ZM20.9164 20.8064C18.6293 12.2709 23.6946 3.49752 32.2301 1.21045L37.0597 -0.0836424C45.5952 -2.37071 54.3685 2.69461 56.6556 11.2301L54.7238 11.7477C52.7226 4.27918 45.0459 -0.152976 37.5773 1.84821L32.7477 3.1423C25.2792 5.14349 20.847 12.8202 22.8482 20.2887L20.9164 20.8064Z" fill="black" mask="url(#path-6-inside-3_0_1)"/>
<mask id="path-8-inside-4_0_1" fill="white">
<path d="M25.1017 150.641L0.882286 60.2534C-1.26184 52.2515 3.4869 44.0264 11.4889 41.8823V41.8823C19.4909 39.7382 27.7159 44.4869 29.8601 52.4889L54.0795 142.877L25.1017 150.641Z"/>
</mask>
<path d="M25.1017 150.641L0.882286 60.2534C-1.26184 52.2515 3.4869 44.0264 11.4889 41.8823V41.8823C19.4909 39.7382 27.7159 44.4869 29.8601 52.4889L54.0795 142.877L25.1017 150.641Z" fill="white"/>
<path d="M24.1358 150.9L-0.0836367 60.5123C-2.37071 51.9768 2.69461 43.2034 11.2301 40.9164L11.7477 42.8482C4.27918 44.8494 -0.15297 52.5261 1.84822 59.9946L26.0676 150.383L24.1358 150.9ZM11.2301 40.9164C19.7655 38.6293 28.5389 43.6946 30.826 52.2301L55.0454 142.618L53.1135 143.136L28.8941 52.7477C26.893 45.2792 19.2162 40.847 11.7477 42.8482L11.2301 40.9164ZM54.0795 142.877L25.1017 150.641L54.0795 142.877ZM-0.0836367 60.5123C-2.37071 51.9768 2.69461 43.2034 11.2301 40.9164C19.7655 38.6293 28.5389 43.6946 30.826 52.2301L28.8941 52.7477C26.893 45.2792 19.2162 40.847 11.7477 42.8482C4.27918 44.8494 -0.15297 52.5261 1.84822 59.9946L-0.0836367 60.5123Z" fill="black" mask="url(#path-8-inside-4_0_1)"/>
<mask id="path-10-inside-5_0_1" fill="white">
<path d="M138.494 219.863L165.126 216.593L169.026 248.354L142.393 251.624L138.494 219.863Z"/>
</mask>
<path d="M138.494 219.863L165.126 216.593L169.026 248.354L142.393 251.624L138.494 219.863Z" fill="white"/>
<path d="M138.494 219.863L165.126 216.593L138.494 219.863ZM169.148 249.347L142.515 252.617L142.271 250.632L168.904 247.362L169.148 249.347ZM142.393 251.624L138.494 219.863L142.393 251.624ZM165.126 216.593L169.026 248.354L165.126 216.593Z" fill="black" mask="url(#path-10-inside-5_0_1)"/>
<mask id="path-12-inside-6_0_1" fill="white">
<path d="M160 213.126L202.653 205.605C210.812 204.166 218.592 209.614 220.03 217.772L221.072 223.681C222.511 231.839 217.063 239.619 208.905 241.058L166.251 248.579L160 213.126Z"/>
</mask>
<path d="M160 213.126L202.653 205.605C210.812 204.166 218.592 209.614 220.03 217.772L221.072 223.681C222.511 231.839 217.063 239.619 208.905 241.058L166.251 248.579L160 213.126Z" fill="white"/>
<path d="M159.826 212.141L202.48 204.62C211.182 203.085 219.48 208.896 221.015 217.598L219.045 217.946C217.703 210.331 210.441 205.247 202.827 206.59L160.174 214.11L159.826 212.141ZM222.057 223.507C223.591 232.21 217.781 240.508 209.078 242.043L166.425 249.564L166.078 247.594L208.731 240.073C216.345 238.73 221.43 231.469 220.087 223.855L222.057 223.507ZM166.251 248.579L160 213.126L166.251 248.579ZM202.48 204.62C211.182 203.085 219.48 208.896 221.015 217.598L222.057 223.507C223.591 232.21 217.781 240.508 209.078 242.043L208.731 240.073C216.345 238.73 221.43 231.469 220.087 223.855L219.045 217.946C217.703 210.331 210.441 205.247 202.827 206.59L202.48 204.62Z" fill="black" mask="url(#path-12-inside-6_0_1)"/>
</svg>
