<svg width="216" height="264" viewBox="0 0 216 264" fill="none" xmlns="http://www.w3.org/2000/svg">
<path d="M45 134.5H135C145.77 134.5 154.5 143.23 154.5 154V214C154.5 241.338 132.338 263.5 105 263.5H45C34.2304 263.5 25.5 254.77 25.5 244V154C25.5 143.23 34.2304 134.5 45 134.5Z" fill="white" stroke="black"/>
<mask id="path-2-inside-1_0_1" fill="white">
<path d="M88 139.795L122.111 12.4889C124.256 4.48691 132.481 -0.26184 140.483 1.88229L145.312 3.17638C153.314 5.32051 158.063 13.5456 155.919 21.5476L121.807 148.853L88 139.795Z"/>
</mask>
<path d="M88 139.795L122.111 12.4889C124.256 4.48691 132.481 -0.26184 140.483 1.88229L145.312 3.17638C153.314 5.32051 158.063 13.5456 155.919 21.5476L121.807 148.853L88 139.795Z" fill="white"/>
<path d="M87.0341 139.536L121.146 12.2301C123.433 3.69461 132.206 -1.37071 140.741 0.916361L140.224 2.84821C132.755 0.847027 125.079 5.27918 123.077 12.7477L88.9659 140.053L87.0341 139.536ZM145.571 2.21046C154.107 4.49752 159.172 13.2709 156.885 21.8064L122.773 149.112L120.841 148.594L154.953 21.2887C156.954 13.8202 152.522 6.14349 145.053 4.14231L145.571 2.21046ZM121.807 148.853L88 139.795L121.807 148.853ZM121.146 12.2301C123.433 3.69461 132.206 -1.37071 140.741 0.916361L145.571 2.21046C154.107 4.49752 159.172 13.2709 156.885 21.8064L154.953 21.2887C156.954 13.8202 152.522 6.14349 145.053 4.14231L140.224 2.84821C132.755 0.847027 125.079 5.27918 123.077 12.7477L121.146 12.2301Z" fill="black" mask="url(#path-2-inside-1_0_1)"/>
<mask id="path-4-inside-2_0_1" fill="white">
<path d="M121 150.934L149.79 43.4889C151.934 35.4869 160.159 30.7382 168.161 32.8823L172.991 34.1764C180.993 36.3205 185.741 44.5456 183.597 52.5476L154.807 159.992L121 150.934Z"/>
</mask>
<path d="M121 150.934L149.79 43.4889C151.934 35.4869 160.159 30.7382 168.161 32.8823L172.991 34.1764C180.993 36.3205 185.741 44.5456 183.597 52.5476L154.807 159.992L121 150.934Z" fill="white"/>
<path d="M120.034 150.675L148.824 43.2301C151.111 34.6946 159.884 29.6293 168.42 31.9164L167.902 33.8482C160.434 31.847 152.757 36.2792 150.756 43.7477L121.966 151.192L120.034 150.675ZM173.249 33.2105C181.785 35.4975 186.85 44.2709 184.563 52.8064L155.773 160.251L153.841 159.733L182.631 52.2887C184.632 44.8202 180.2 37.1435 172.732 35.1423L173.249 33.2105ZM154.807 159.992L121 150.934L154.807 159.992ZM148.824 43.2301C151.111 34.6946 159.884 29.6293 168.42 31.9164L173.249 33.2105C181.785 35.4975 186.85 44.2709 184.563 52.8064L182.631 52.2887C184.632 44.8202 180.2 37.1435 172.732 35.1423L167.902 33.8482C160.434 31.847 152.757 36.2792 150.756 43.7477L148.824 43.2301Z" fill="black" mask="url(#path-4-inside-2_0_1)"/>
<mask id="path-6-inside-3_0_1" fill="white">
<path d="M56.2129 148.671L21.8823 20.5475C19.7382 12.5455 24.4869 4.32051 32.4889 2.17638L37.3185 0.882283C45.3205 -1.26184 53.5456 3.48689 55.6897 11.4889L90.0203 139.612L56.2129 148.671Z"/>
</mask>
<path d="M56.2129 148.671L21.8823 20.5475C19.7382 12.5455 24.4869 4.32051 32.4889 2.17638L37.3185 0.882283C45.3205 -1.26184 53.5456 3.48689 55.6897 11.4889L90.0203 139.612L56.2129 148.671Z" fill="white"/>
<path d="M55.247 148.93L20.9164 20.8064C18.6293 12.2709 23.6946 3.49752 32.2301 1.21045L32.7477 3.1423C25.2792 5.14349 20.847 12.8202 22.8482 20.2887L57.1788 148.412L55.247 148.93ZM37.0597 -0.0836424C45.5952 -2.37071 54.3685 2.69461 56.6556 11.2301L90.9862 139.354L89.0544 139.871L54.7238 11.7477C52.7226 4.27918 45.0459 -0.152976 37.5773 1.84821L37.0597 -0.0836424ZM90.0203 139.612L56.2129 148.671L90.0203 139.612ZM20.9164 20.8064C18.6293 12.2709 23.6946 3.49752 32.2301 1.21045L37.0597 -0.0836424C45.5952 -2.37071 54.3685 2.69461 56.6556 11.2301L54.7238 11.7477C52.7226 4.27918 45.0459 -0.152976 37.5773 1.84821L32.7477 3.1423C25.2792 5.14349 20.847 12.8202 22.8482 20.2887L20.9164 20.8064Z" fill="black" mask="url(#path-6-inside-3_0_1)"/>
<mask id="path-8-inside-4_0_1" fill="white">
<path d="M25.1017 150.641L0.882286 60.2534C-1.26184 52.2515 3.4869 44.0264 11.4889 41.8823V41.8823C19.4909 39.7382 27.7159 44.4869 29.8601 52.4889L54.0795 142.877L25.1017 150.641Z"/>
</mask>
<path d="M25.1017 150.641L0.882286 60.2534C-1.26184 52.2515 3.4869 44.0264 11.4889 41.8823V41.8823C19.4909 39.7382 27.7159 44.4869 29.8601 52.4889L54.0795 142.877L25.1017 150.641Z" fill="white"/>
<path d="M24.1358 150.9L-0.0836367 60.5123C-2.37071 51.9768 2.69461 43.2034 11.2301 40.9164L11.7477 42.8482C4.27918 44.8494 -0.15297 52.5261 1.84822 59.9946L26.0676 150.383L24.1358 150.9ZM11.2301 40.9164C19.7655 38.6293 28.5389 43.6946 30.826 52.2301L55.0454 142.618L53.1135 143.136L28.8941 52.7477C26.893 45.2792 19.2162 40.847 11.7477 42.8482L11.2301 40.9164ZM54.0795 142.877L25.1017 150.641L54.0795 142.877ZM-0.0836367 60.5123C-2.37071 51.9768 2.69461 43.2034 11.2301 40.9164C19.7655 38.6293 28.5389 43.6946 30.826 52.2301L28.8941 52.7477C26.893 45.2792 19.2162 40.847 11.7477 42.8482C4.27918 44.8494 -0.15297 52.5261 1.84822 59.9946L-0.0836367 60.5123Z" fill="black" mask="url(#path-8-inside-4_0_1)"/>
<mask id="path-10-inside-5_0_1" fill="white">
<path d="M129 219.27L155.633 216L159.995 251.527L133.362 254.797L129 219.27Z"/>
</mask>
<path d="M129 219.27L155.633 216L159.995 251.527L133.362 254.797L129 219.27Z" fill="white"/>
<path d="M129 219.27L155.633 216L129 219.27ZM160.117 252.52L133.484 255.79L133.24 253.805L159.873 250.535L160.117 252.52ZM133.362 254.797L129 219.27L133.362 254.797ZM155.633 216L159.995 251.527L155.633 216Z" fill="black" mask="url(#path-10-inside-5_0_1)"/>
<mask id="path-12-inside-6_0_1" fill="white">
<path d="M154 216.126L196.653 208.605C204.812 207.166 212.592 212.614 214.03 220.772L215.072 226.681C216.511 234.839 211.063 242.619 202.905 244.058L160.251 251.579L154 216.126Z"/>
</mask>
<path d="M154 216.126L196.653 208.605C204.812 207.166 212.592 212.614 214.03 220.772L215.072 226.681C216.511 234.839 211.063 242.619 202.905 244.058L160.251 251.579L154 216.126Z" fill="white"/>
<path d="M153.826 215.141L196.48 207.62C205.182 206.085 213.48 211.896 215.015 220.598L213.045 220.946C211.703 213.331 204.441 208.247 196.827 209.59L154.174 217.11L153.826 215.141ZM216.057 226.507C217.591 235.21 211.781 243.508 203.078 245.043L160.425 252.564L160.078 250.594L202.731 243.073C210.345 241.73 215.43 234.469 214.087 226.855L216.057 226.507ZM160.251 251.579L154 216.126L160.251 251.579ZM196.48 207.62C205.182 206.085 213.48 211.896 215.015 220.598L216.057 226.507C217.591 235.21 211.781 243.508 203.078 245.043L202.731 243.073C210.345 241.73 215.43 234.469 214.087 226.855L213.045 220.946C211.703 213.331 204.441 208.247 196.827 209.59L196.48 207.62Z" fill="black" mask="url(#path-12-inside-6_0_1)"/>
</svg>
